<svg version="1.2" xmlns="http://www.w3.org/2000/svg" viewBox="0 0 2400 2400" width="2400" height="2400"><style>.a{opacity:1}.b{fill:#010101}</style><path fill-rule="evenodd" class="a" d="m1772.5 509.5q186.5 3 374 2 37 0 74 0 1.5-0.3 2 1 0 2 2 2 1 0 1 1 0 2 2 2 1 0 1 1 0 2 2 2 1 0 1 1 0 2 2 2 1 0 1 1 0 2 2 2 1 0 1 1 0 2 2 2 9.5 8.5 18 18 0 2 2 2 1 0 1 1 0 2 2 2 1 0 1 1 0 2 2 2 1 0 1 1 0 2 2 2 1 0 1 1 0 2 2 2 1 0 1 1 0 2 2 2 9.5 8.5 18 18 0 2 2 2 1 0 1 1 0 2 2 2 1 0 1 1 0 2 2 2 1 0 1 1 0 2 2 2 1 0 1 1 0 2 2 2 1 0 1 1 0 2 2 2 32.3 31.1 64 63-25.5 1.5-51 1-11.5-2-24-2-12.5 0-24 2 1 513.5-2 1026-32.5-32.1-65-64 0-2-2-2-1 0-1-1 0-2-2-2-1 0-1-1 0-2-2-2-1 0-1-1 0-2-2-2-1 0-1-1 0-2-2-2-3.5-2.5-6-6 0-2-2-2-1 0-1-1 0-2-2-2-1 0-1-1 0-2-2-2-1 0-1-1 0-2-2-2-1 0-1-1 0-2-2-2-1 0-1-1 0-2-2-2-1 0-1-1 0-2-2-2-1 0-1-1 0-2-2-2-1 0-1-1 0-2-2-2-1 0-1-1 0-2-2-2-3.5-2.5-6-6 0-2-2-2-1 0-1-1 0-2-2-2-1 0-1-1 0-2-2-2-1 0-1-1 0-2-2-2-1 0-1-1 0-2-2-2-7-6-13-13 0-147 0-294-1.9-0.4-3 1-0.8 3.4-3 6-2 0-2 2 0 0.5 0 1-2 0-2 2-0.1 1.7-1 3-2 0-2 2 0 1-1 1-2.3 0.5-2 3-2 3-4 6-2 0-2 2-2.8 5.6-7 10-2 0-2 2-2 3.1-4 6-2 0-2 2-3.1 3.6-6 7-2 0-2 2 0 1-1 1-2 0-2 2-10.4 11.7-21.5 23-3.9 4.1-8.5 7-2 0-2 2 0 1-1 1-2 0-2 2-5.9 5.7-13 10-2 0-2 2-4.4 4.2-10 7-2 0-2 2-4 3.4-9 6-2 0-2 2-1.3 0.9-3 1-2.5-0.3-3 2-2.4 1.2-4 3.5-1.4 0.7-3 0.5-2 0-2 2-1.3 0.9-3 1-2.5-0.3-3 2-1.1 1.4-3 1-2.5-0.3-3 2-1.1 1.4-3 1-2 0-2 2-1.8 1.1-4 1-2 0-2 2-6 2-12 4-2.5-0.3-3 2-0.5 0-1 0-2.5-0.3-3 2-2.1 1.4-5 1-2.5-0.3-3 2-2.9 1-6 1-2.5-0.3-3 2-2.9 1-6 1-3.4-0.6-5 2-3.3 1.3-7 1-3.4-0.6-5 2-4.4 1.2-9 1-4.8-0.8-8 2-6.4 1.4-13 1-7.7-0.9-14 2-17 1.9-34 0-5.8-2.9-13-2-8.1 0.2-16-1-2.1-2.7-6-2-5.1 0.1-10-1-1.6-2.6-5-2-3.7 0.3-7-1-1.6-2.6-5-2-4.1-0.1-8-1-0.5-2.3-3-2-3.1 0-6-1-0.5-2.3-3-2-2.2 0.1-4-1-0.5-2.3-3-2-1 0-2 0-0.5-2.3-3-2-6-2-12-4 0-2-2-2-2.2 0.1-4-1 0-2-2-2-2.2 0.1-4-1 0-2-2-2-2.2 0.1-4-1 0-2-2-2-1.9 0.4-3-1-0.5-2.3-3-2-1.7-0.1-3-1 0-2-2-2-1.6 0.2-3-0.5-8.2-5.6-16-11.5 0-2-2-2-7.9-4.5-15-10 0-2-2-2-1 0-1-1 0-2-2-2-2.8-2-6-3.5-6.3-6.6-13-12.5 0-2-2-2 0-2-2-2-1 0-1-1 0-2-2-2-1 0-1-1 0-2-2-2-1 0-1-1 0-2-2-2-10.2-10.3-19-22 0-2-2-2-5.6-5.1-9-12 0-2-2-2-2-3-4-6 0.3-2.5-2-3-1 0-1-1 0-2-2-2-2.5-3.2-4-7 0-2-2-2-0.1-1.7-1-3 0-2-2-2-0.9-1.3-1-3 0.3-2.5-2-3-1.2-2.4-3.5-4-0.7-1.4-0.5-3 0-2-2-2 0-0.5 0-1 0-2-2-2-0.9-1.3-1-3 0.3-2.5-2-3-3.5-3.7-4-9 0-2-2-2-1.1-1.8-1-4 0-2-2-2-1.1-1.8-1-4 0-2-2-2-1.1-1.8-1-4 0-2-2-2-2-6-4-12 0.3-2.5-2-3-0.8-2.4-1-5 0.3-2.5-2-3-1.1-1.8-1-4 0.3-2.5-2-3-1-2.9-1-6 0.3-2.5-2-3 0-1 0-2 0.3-2.5-2-3-1.3-2.8-1-6 0.3-2.5-2-3-0.9-3.9-1-8 0.5-3-2-4-1.2-3.9-1-8 0.5-3-2-4-1.1-5.4-1-11 0.7-3.9-2-6-1.2-6.9-1-14 0.9-7.7-2-14 0-11 0-22 2.9-4.8 2-11-0.2-6.1 1-12 2.6-1.6 2-5 0-4.6 1-9 2.3-0.5 2-3-0.3-3.2 1-6 2.3-0.5 2-3-0.3-3.2 1-6 2 0 2-2-0.1-2.8 1-5.5 3.5-4.4 5-9.5 2.3-0.5 2-3-0.4-1.9 1-3 2 0 2-2-0.1-2.2 1-4 2 0 2-2-0.2-1.6 0.5-3 2.3-1.6 3.5-4 2.3-0.5 2-3 0.1-1.7 1-3 2 0 2-2 6.5-9.1 13-18 2 0 2-2 5.1-4.6 9-10 2 0 2-2 0-1 1-1 2 0 2-2 0-1 1-1 2 0 2-2 0-1 1-1 2 0 2-2 0-1 1-1 2 0 2-2 4.4-4.9 10-9 2 0 2-2 2.9-2 6-4 2 0 2-2 4.4-4.2 10-7 2 0 2-2 2.4-1.2 4-3.5 1.4-0.7 3-0.5 2 0 2-2 2.6-2.2 6-3 2 0 2-2 3.2-2.4 7-4 2 0 2-2 1.8-1.1 4-1 2 0 2-2 1.8-1.1 4-1 2 0 2-2 1.8-1.1 4-1 2 0 2-2 1.8-1.1 4-1 2 0 2-2 2.9-1 6-1 2 0 2-2 1.8-1.1 4-1 2.5 0.3 3-2 2.9-1 6-1 2.5 0.3 3-2 2.9-1 6-1 2.5 0.3 3-2 3.4-1.1 7-1 2.5 0.3 3-2 0.5 0 1 0 3.4 0.6 5-2 3.3-1.3 7-1 3.4 0.6 5-2 5.4-1.1 11-1 3.9 0.7 6-2 6.4-1.4 13-1 6.2 0.9 11-2 24.5-1.9 49 0 6.8 2.9 15 2 9.1-0.2 18 1 3.2 2.8 8 2 6.6-0.2 13 1 2.7 2.8 7 2 4.6-0.2 9 1 2.1 2.7 6 2 0.5 0 1 0 1.6 2.6 5 2 3.7-0.3 7 1 1.6 2.6 5 2 4.1-0.1 8 1 0.5 2.3 3 2 3.1 0 6 1 0.5 2.3 3 2 3.1 0 6 1 0.5 2.3 3 2 3.2-0.3 6 1 0 2 2 2 6.7 1.4 13 4 0 2 2 2 2.2-0.1 4 1 0 2 2 2 2.2-0.1 4 1 0 2 2 2 2.3 0 4.5 1 4.3 2.1 7.5 5 0.5 2.3 3 2 1.7 0.1 3 1 0 2 2 2 1.6-0.2 3 0.5 1.6 2.3 4 3.5 0 2 2 2 1.6-0.2 3 0.5 1.6 2.3 4 3.5 0 2 2 2 1.9-0.4 3 1 0 2 2 2 5.6 2.8 10 7 0 2 2 2 1 0 1 1 0 2 2 2 3.5 3 7 6 0 2 2 2 1 0 1 1 0 2 2 2 1 0 1 1 0 2 2 2 6 4.5 11.5 10 2.5 5.1 6.5 9 0 2 2 2 1 0 1 1 0 2 2 2 0.1 1.7 1 3 0 2 2 2 1 0 1 1 0 2 2 2 0.9 2.7 3.5 4 0.7 1.4 0.5 3 0 2 2 2 3.6 0.3 3 4 0 2 2 2 1.2 2.4 3.5 4 0.7 1.4 0.5 3 0 2 2 2 1.4 1.1 1 3 0 2 2 2 2.4 3.2 4 7 0 2 2 2 1.1 1.8 1 4 0 2 2 2 1.4 1.1 1 3-0.3 2.5 2 3 3.1 5.1 6.5 10 0.7 1.9 0.5 4-0.3 2.5 2 3-0.3 2.5 2 3 1.4 1.6 1 4 0 2 2 2 0 0.5 0 1 0.4 2.7 2 5 1.5-36.5 1-73 1-62.5-2-124 0-46 0-92 2-21.2 2-43.5 0-22.3-2-43.5-116-3-233-2-175 0-350 0-115 0-230 0-0.5 512.7-3 1025-2.8-1.9-4-5 0-2-2-2-1 0-1-1 0-2-2-2-1 0-1-1 0-2-2-2-1 0-1-1 0-2-2-2-1 0-1-1 0-2-2-2-1 0-1-1 0-2-2-2-1 0-1-1 0-2-2-2-1 0-1-1 0-2-2-2-34.6-32.9-68-67.5-5.3-5.1-11-9.5 0-2-2-2-1 0-1-1 0-2-2-2-10.5-10.5-21-21 0-2-2-2-1 0-1-1 0-2-2-2-1 0-1-1 0-2-2-2-1 0-1-1 0-2-2-2-1 0-1-1 0-440 0-880-58.1-2.5-117-3-3.5-7.8-8-15 0.3-2.5-2-3-1.4-1.1-1-3 0-2-2-2-1.4-1.1-1-3 0-2-2-2-4-4.5-7-10 0-2-2-2-7.6-9.8-16-19 0-2-2-2 0-2-2-2-9.9-7.6-19-16 0-2-2-2-5.5-3-10-7 0-2-2-2-1.9 0.4-3-1 0-2-2-2-1.6 0.2-3-0.5-3.1-3.3-7-5.5 0-2-2-2-2.2 0.1-4-1 0-2-2-2-1.9 0.4-3-1-0.5-2.3-3-2-4.5-2.4-9-4-0.5-2.3-3-2-5.7-1.5-11-4-0.5-2.3-3-2-2.2 0.1-4-1-0.5-2.3-3-2-3.2 0.3-6-1-1-2.5-4-2-3.1 0-6-1-0.5-2.3-3-2-3.1 0-6-1-1-2.5-4-2-1 0-2 0-1-2.5-4-2-4.1 0.1-8-1-1.6-2.6-5-2-5.1 0.1-10-1-2.1-2.7-6-2-6.1 0.2-12-1-1-2.5-4-2-3 0-6 0-9.5 0-19-1-1.6-2.6-5-2-7.5 0-15 0-40.5 0.3-81-0.5-1.8-1.7 0-3.5 81 1 161-2 150 0.3 300-1-0.5-94 1-188 6.1-58.3 28-112.5 8.3-15.6 15-32 10.6-16.7 21-33.5 33-43.3 78-73.5 38.1-21.1 78.5-37.5 37.9-14.1 78-21 104.8-9.2 204.5 24 55.7 22.1 104 56 18.7 14.8 38 29 14.6 12.8 28 27 2 1 4 2 21.2 23.8 44.5 46 7.5 9.7 16.5 18 4.6 8.4 12.5 14 6 8.3 12.5 16 6.4 4.9 10 12 7.2 8.5 15.5 16 8.9 10.5 16.5 22 5.5 7.1 12.5 13 44 57 88 114 19.7 27 38 55 3.5 7.3 8.5 13.5 2.7 5.7 5 11.5-15.1 0-30-2-8.8 0.8-17.5 2-10.2 0.6-13.5-9-16.5-16.9-33-34-1.3-1.9-2-4-13-11.5-25-24-1.2-3.4-3.5-6-61.1-59.8-121.5-120-3.4-1.2-6-3.5-6.8-6.7-13-14-14.4-14.2-31-25.5-4-4.5-8-9-18.9-15.9-39-30.5-2-2.5-4-5-34.4-25.6-70-50-17.2-8.9-33.5-19.5-17.8-7.9-36-15-75.5-15.4-151.5-3-26.3 6.4-50.5 18-5.2 5.1-12 8-7.9 5.6-15.5 11.5-9.7 10.7-20.5 20.5-28.9 37.1-46.5 81.5-15.3 42.9-25 87.5-1.5 77-1 154 231 1.3 462 1zm18 454q-7.4 1.2-15 1-2.1 2.7-6 2-4.9 1.2-10 1-1 2.5-4 2-4.4 1-9 1-0.5 2.3-3 2-3.9 1.2-8 1-0.5 2.3-3 2-2.4 0.8-5 1-0.5 2.3-3 2-1.8 1.1-4 1-0.5 2.3-3 2-9.1 5.3-19 9-0.5 2.3-3 2-4.5 4-10 7 0 2-2 2-15.9 11.2-27 27 0 2-2 2-1.5 3.8-4 7 0 2-2 2 0.1 2.2-1 4 0 2-2 2 0.4 1.9-1 3 0.3 2.5-2 3-2 6-4 12 0.3 2.5-2 3-0.1 4.1-1 8 0.3 2.5-2 3-0.1 5.5-1 11 0.8 4.3-2 7 0 1.5 0 3 0 4.5 0 9 0 10 0 20 0 4 0 8 0 0.5 0 1 2.7 2.1 2 6 1.2 3.9 1 8 2.3 0.5 2 3 1.3 2.8 1 6 2.3 0.5 2 3 0.8 2.4 1 5 2.3 0.5 2 3 1.1 1.8 1 4 2 0 2 2 1.1 1.8 1 4 2 0 2 2 0.9 1.3 1 3 2.3 0.5 2 3 1.4 1.1 1 3 2 0 2 2 2.5 3.2 4 7 2 0 2 2 6 8 12 16 2 0 2 2 1 0 1 1 2 0 2 2 1 0 1 1 2 0 2 2 2.9 4.6 7 8.5 11.4 9.7 23 18.5 2 0 2 2 1.6-0.2 3 0.5 1.3 2.6 4 3.5 2 0 2 2 0.5 0 1 0 2 0 2 2 3.8 1.6 7 4 2 0 2 2 9 3.5 18 7 2 0 2 2 6.6 1.6 13 4 3-0.5 4 2 3.7-0.3 7 1 3.4-0.6 5 2 5.1-0.1 10 1 5.3-0.8 9 2 16 0 32 0 4.8-2.9 11-2 7-0.9 14-1 2.1-2.7 6-2 4.3-1.4 9-1 1.6-2.6 5-2 3.3-1.3 7-1 0.5-2.3 3-2 3.9-1.2 8-1 0.5-2.3 3-2 2.8-1.3 6-1 0.5-2.3 3-2 2.9-1 6-1 0-2 2-2 2.8-1.3 6-1 0.5-2.3 3-2 1.8-1.1 4-1 0.5-2.3 3-2 3.8-1.6 8-3 0.5-2.3 3-2 16.8-7.5 33-16 0-2 2-2 4.7-1.5 9-4 0-2 2-2 1.8-1.1 4-1 0-2 2-2 3.2-2.4 7-4 0-2 2-2 0.5 0 1 0 0-2 2-2 7.6-4.6 15-10 0-2 2-2 2.7-0.9 4-3.5 1.4-0.7 3-0.5 0-2 2-2 0-1 1-1 0-2 2-2 4.4-4.2 10-7 0-2 2-2 1.5-1.5 3-3 0-2 2-2 15.1-13 28-28 0-2 2-2 4-6.5 9-12 0-2 2-2 1.6-3.8 4-7 0-2 2-2-0.1-2.2 1-4 0-2 2-2-0.4-1.9 1-3 0-2 0-4-1.4-2.1-1-5-2 0-2-2-1.1-1.8-1-4-2 0-2-2-0.9-1.3-1-3-2.3-0.5-2-3-1.2-2.4-3.5-4-0.7-1.4-0.5-3-2 0-2-2-2.9-3.5-6-7-2 0-2-2-0.1-1.7-1-3-2 0-2-2-1 0-1-1-2 0-2-2-1 0-1-1-2 0-2-2-9-10-19-19-2 0-2-2-1 0-1-1-2 0-2-2-2 0-2-2-7.1-4.2-13-10-2 0-2-2-5.5-3-10-7-2 0-2-2-3.7-1.1-6-4-2.5 0.3-3-2-1.7-0.1-3-1-2 0-2-2-1.9-1.7-4-3-2 0-2-2-1.6 0.2-3-0.5-1.6-2.3-4-3.5-2.5 0.3-3-2-1.7-0.1-3-1-2 0-2-2-2.2 0.1-4-1-2 0-2-2-1.9 0.4-3-1-2 0-2-2-2.2 0.1-4-1-2 0-2-2-2.2 0.1-4-1-2 0-2-2-2.2 0.1-4-1-2.5 0.3-3-2-1.9 0.4-3-1-2.5 0.3-3-2-2.6-0.2-5-1-2.5 0.3-3-2-4.4-1.7-9-3-2 0-2-2-3.1 0-6-1-2.5 0.3-3-2-3.1 0-6-1-2.5 0.3-3-2-3.2 0.3-6-1-2.5 0.3-3-2-4.1 0.2-8-1-3 0.5-4-2-4.7 0.4-9-1-3.9 0.7-6-2-6.6 0.2-13-1-5.7 0.9-10-2-23.5 0-47 0-6.3 2.9-14 2z"/><path fill-rule="evenodd" class="b" d="m32.5 514.5q1.5 0 3 0 16-0.2 32 1 3.2 2.8 8 2 6.5 0 13 0 18.5-0.2 37 1 3.2 2.8 8 2 6.5 0 13 0 19-0.3 38 1 3.2 2.8 8 2 7 0 14 0 19.5-0.2 39 1 3.2 2.8 8 2 8 0 16 0 21.5-0.3 43 1 3.2 2.8 8 2 7.5 0 15 0 4 0 8 0 8.4 2.9 18 2 14.5-0.2 29 1 6.8 2.9 15 2 11.5-0.2 23 1 1 2.5 4 2 4 0 8 0 10-0.2 20 1 3.7 2.8 9 2 8.6-0.3 17 1 3.7 2.8 9 2 6.6-0.2 13 1 3.2 2.8 8 2 7.1-0.2 14 1 2.1 2.7 6 2 6.1-0.2 12 1 2.1 2.7 6 2 5.6-0.1 11 1 2.1 2.7 6 2 4.6-0.2 9 1 2.1 2.7 6 2 4.6 0 9 1 1.6 2.6 5 2 4.6-0.2 9 1 1 2.5 4 2 1.5 0 3 0 1.6 2.6 5 2 4.1-0.1 8 1 1 2.5 4 2 4.1-0.1 8 1 1 2.5 4 2 4.1 0.1 8 1 0.5 2.3 3 2 3.2-0.3 6 1 0.5 2.3 3 2 7.9 0.7 15 4 0.5 2.3 3 2 7.3 0.9 14 4 0 2 2 2 2.2-0.1 4 1 0.5 2.3 3 2 1.9-0.4 3 1 0.5 2.3 3 2 1.9-0.4 3 1 0.5 2.3 3 2 0.5 2.3 3 2 2.7-0.2 5 1 0 2 2 2 6.6 3.2 13 7 0 2 2 2 1.6-0.2 3 0.5 1.6 2.3 4 3.5 0.5 2.3 3 2 1.7 0.1 3 1 0 2 2 2 1.7 0.1 3 1 0 2 2 2 5.5 3 10 7 0 2 2 2 1.5 2 4 3 0 2 2 2 1 0 1 1 0 2 2 2 4.3 3.8 9 7 0 2 2 2 1 0 1 1 0 2 2 2 7 6 13 13 0 2 2 2 5.9 5.3 10 12 0 2 2 2 1.3 2.1 3 4 0 2 2 2 1 0 1 1 0 2 2 2 2.5 3.2 4 7 0 2 2 2 1.4 1.1 1 3 0 2 2 2 1.2 2.4 3.5 4 0.7 1.4 0.5 3 0 2 2 2 0.9 1.3 1 3-0.3 2.5 2 3 2.4 3.2 4 7-0.3 2.5 2 3 1.4 1.1 1 3 0 2 2 2 1.2 2.3 1 5-0.3 2.5 2 3-0.3 2.5 2 3 1.1 1.8 1 4 0 2 2 2 1.1 1.8 1 4-0.3 2.5 2 3 0.8 2.4 1 5-0.3 2.5 2 3 1.3 2.8 1 6 0 2 2 2 0.7 3.5 1 7-0.3 2.5 2 3 1 2.9 1 6-0.3 2.5 2 3 1.2 3.9 1 8-0.5 3 2 4 1.2 3.9 1 8-0.6 3.4 2 5 1.1 4.9 1 10-0.6 3.4 2 5 1.2 5.9 1 12-0.8 4.8 2 8 1.2 9.4 1 19 0 7 0 14 0 14 0 28 0 6 0 12 0.3 9.6-1 19-2.8 3.2-2 8 0.3 5.6-1 11-2.7 2.1-2 6 0.2 4.6-1 9-2.6 1.6-2 5 0 4.6-1 9-2.3 0.5-2 3 0 3.1-1 6-2.3 0.5-2 3 0 3.1-1 6-2.3 0.5-2 3 0.3 3.2-1 6-2.3 0.5-2 3 0.3 3.2-1 6-2 0-2 2-1.4 6.7-4 13-2 0-2 2-0.3 4.5-3 8-2.3 0.5-2 3 0.4 1.9-1 3-2.3 0.5-2 3 0.1 2.2-1 4-2 0-2 2 0.4 1.9-1 3-2.3 0.5-2 3-2.5 4.3-4 9-2 0-2 2-1.6 3.8-4 7-2.3 0.5-2 3-0.1 1.7-1 3-2 0-2 2-1.5 3.8-4 7-2 0-2 2-5.3 9.6-12 18-2 0-2 2-2.8 5.6-7 10-2 0-2 2 0 1-1 1-2 0-2 2-2.7 5.3-7 9-2 0-2 2-16.5 16.5-33 33-2 0-2 2-2.9 2-6 4-2 0-2 2 0 1-1 1-2 0-2 2-4.4 4.2-10 7-2 0-2 2-4.4 4.2-10 7-2 0-2 2-1.1 1.4-3 1-2 0-2 2-2.1 1.3-4 3-2 0-2 2-2.4 1.2-4 3.5-1.4 0.7-3 0.5-2 0-2 2-2.4 1.2-4 3.5-1.4 0.7-3 0.5-2 0-2 2-3.2 2.5-7 4-2 0-2 2-4.9 1.6-9 4-2 0-2 2-2.4 1.2-4 3.5-1.4 0.7-3 0.5-2 0-2 2-2.1 1.3-4 3-2 0-2 2 2.6 3.5 5.5 7 0.7 1.4 0.5 3 0 2 2 2 2.4 3.2 4 7 0 2 2 2 0.9 1.3 1 3-0.3 2.5 2 3 3.9 4 6.5 9 0.7 1.4 0.5 3 0 2 2 2-0.3 2.5 2 3 1.2 2.4 3.5 4 0.7 1.4 0.5 3 0 2 2 2 2.4 3.2 4 7 0 2 2 2 3 3.5 4 8-0.3 2.5 2 3 1.2 2.4 3.5 4 0.7 1.4 0.5 3 0 2 2 2 2.4 3.2 4 7 0 2 2 2 2.2 3.9 5.5 7 0.7 1.4 0.5 3 0 2 2 2 0.1 1.7 1 3 0 2 2 2 0.9 1.3 1 3-0.3 2.5 2 3 1.2 2.4 3.5 4 0.7 1.4 0.5 3 0 2 2 2 1.2 2.4 3.5 4 0.7 1.4 0.5 3 0 2 2 2 3 3.5 4 8-0.3 2.5 2 3 1.2 2.4 3.5 4 0.7 1.4 0.5 3 0 2 2 2 2.6 1.1 3 4 0 2 2 2 1.1 1.8 1 4 0 2 2 2 1.2 2.4 3.5 4 0.7 1.4 0.5 3 0 2 2 2 1.4 1.1 1 3 0 2 2 2 2.5 3.2 4 7 0 2 2 2 1.1 1.8 1 4 0 2 2 2 1.2 2.4 3.5 4 0.7 1.4 0.5 3 0 2 2 2 2.2 2.6 3 6 0 2 2 2 1.2 2.4 3.5 4 0.7 1.4 0.5 3 0 2 2 2 2.5 3.2 4 7 0 2 2 2 0.9 1.3 1 3-0.3 2.5 2 3 1.2 2.4 3.5 4 0.7 1.4 0.5 3 0 2 2 2 1.4 1.1 1 3 0 2 2 2 2.5 3.2 4 7 0 2 2 2 0.9 1.3 1 3-0.3 2.5 2 3 2.6 1.1 3 4 0 2 2 2 0.9 1.3 1 3-0.3 2.5 2 3 3.2 4.5 6.5 9 0.7 1.4 0.5 3 0 2 2 2 2.4 3.2 4 7 0 2 2 2 0.9 1.3 1 3-0.3 2.5 2 3 1.2 2.4 3.5 4 0.7 1.4 0.5 3 0 2 2 2 1.4 1.1 1 3 0 2 2 2-0.3 2.5 2 3 1.2 2.4 3.5 4 0.7 1.4 0.5 3 0 2 2 2 2.4 3.2 4 7 0 2 2 2 2.5 3.2 4 7 0 2 2 2 1.6 4.9 4 9 0 2 2 2 2.4 3.2 4 7 0 2 2 2 0.9 1.3 1 3-0.3 2.5 2 3 3.6 0.3 3 4 0 2 2 2 0.9 1.3 1 3 0 2 2 2 0.9 1.3 1 3-0.3 2.5 2 3 1.2 2.4 3.5 4 0.7 1.4 0.5 3 0 2 2 2 2.4 3.2 4 7 0 2 2 2 2.5 3.2 4 7 0 2 2 2 1.6 4.9 4 9 0 2 2 2-0.3 2.5 2 3 1.2 2.4 3.5 4 0.7 1.4 0.5 3 0 2 2 2 2.4 3.2 4 7 0 2 2 2 0.9 1.3 1 3 0 2 2 2 0.9 1.3 1 3-0.3 2.5 2 3 1.2 2.4 3.5 4 0.7 1.4 0.5 3 0 2 2 2 2.4 3.2 4 7 0 2 2 2 0.9 1.3 1 3-0.3 2.5 2 3 0 2 2 2 2.5 3.2 4 7 0 2 2 2 3.8 6.5 7 13 0 2 2 2 2.5 3.2 4 7 0 2 2 2 0.1 1.7 1 3 0 2 2 2 1.1 1.8 1 4 0 2 2 2 1.2 2.4 3.5 4 0.7 1.4 0.5 3 0 2 2 2 0 0.5 0 1 0 2 2 2 1.2 2.4 3.5 4 0.7 1.4 0.5 3 0 2 2 2 0.9 1.3 1 3 0 2 2 2 0.9 1.3 1 3-0.3 2.5 2 3 1.2 2.4 3.5 4 0.7 1.4 0.5 3 0 2 2 2 1.2 2.4 3.5 4 0.7 1.4 0.5 3 0 2 2 2 2.5 3.2 4 7 0 2 2 2 0.1 1.7 1 3 0 2 2 2 0 0.5 0 1 0 2 2 2 2.5 3.2 4 7 0 2 2 2 2.5 3.2 4 7 0 2 2 2 2.5 3.2 4 7 0 2 2 2 0.1 1.7 1 3 0 2 2 2 2.5 3.2 4 7 0 2 2 2 1.3 2.1 3 4 0 2 2 2 2.5 3.2 4 7 0 2 2 2 4.1 5.1 7 11-0.3 2.5 2 3 1 0 1 1 0 2 2 2 4 4.5 7 10 0 2 2 2 4.3 6.2 9 12 0 2 2 2 4.2 4.4 7 10 0 2 2 2 1 0 1 1 0 2 2 2 4.2 4.4 7 10 0 2 2 2 1 0 1 1 0 2 2 2 2 2.9 4 6 0 2 2 2 1.5-0.1 2.5 1 1.5 3.2 3.5 6 0 2 2 2 1 0 1 1 0 2 2 2 12 13.5 24 27 0 2 2 2 1 0 1 1 0 2 2 2 9.9 10.3 19 21 0 2 2 2 1 0 1 1 0 2 2 2 1 0 1 1 0 2 2 2 1 0 1 1 0 2 2 2 10.8 9.2 21 19 0 2 2 2 1 0 1 1 0 2 2 2 11.9 10.7 24 21 0 2 2 2 1 0 1 1 0 2 2 2 8 5.5 15 12 0 2 2 2 7.1 4.3 13 10 0 2 2 2 5.6 2.8 10 7 0 2 2 2 3.1 2 6 4 0 2 2 2 1.6-0.2 3 0.5 4.7 4.9 10 8.5 0 2 2 2 3.8 1.5 7 4 0 2 2 2 3.8 1.5 7 4 0 2 2 2 1.7 0.1 3 1 0 2 2 2 3.8 1.5 7 4 0 2 2 2 3.8 1.6 7 4 0 2 2 2 0.5 0 1 0 0 2 2 2 1.6-0.2 3 0.5 1.6 2.3 4 3.5 0 2 2 2 5.3 0.5 9 4 0 2 2 2 2.2-0.1 4 1 0 2 2 2 6.6 3.2 13 7 0.5 2.3 3 2 2.4-0.4 4 1 0.5 2.3 3 2 14.6 8.7 30 15 0.5 2.3 3 2 9 3.5 18 7 0 2 2 2 2.2-0.1 4 1 0.5 2.3 3 2 2.6 0.2 5 1 0 2 2 2 6.7 1.4 13 4 0.5 2.3 3 2 2.6 0.2 5 1 0.5 2.3 3 2 0.5 0 1 0 0.5 2.3 3 2 2.6 0.2 5 1 0.5 2.3 3 2 3.2-0.3 6 1 0.5 2.3 3 2 3.2-0.3 6 1 0.5 2.3 3 2 3.2-0.3 6 1 0.5 2.3 3 2 4.1 0.1 8 1 0.5 2.3 3 2 4.5 0.3 9 1 0 2 2 2 3.5 0.3 7 1 0.5 2.3 3 2 4.1-0.2 8 1 1.6 2.6 5 2 4.6 0 9 1 0.5 2.3 3 2 4.6-0.2 9 1 1 2.5 4 2 5.6-0.1 11 1 2.1 2.7 6 2 1 0 2 0 2.1 2.7 6 2 6.1-0.2 12 1 2.1 2.7 6 2 7.1-0.2 14 1 2.7 2.8 7 2 8.6-0.3 17 1 1.6 2.6 5 2 3 0 6 0 10-0.2 20 1 5.3 2.9 12 2 10.5-0.2 21 1 7.9 2.9 17 2 57.5 0 115 0 10.6 0.9 20-2 14.5-1.2 29-1 8.2 0.9 15-2 12.5-1.3 25-1 7.2 0.9 13-2 11-1.2 22-1 6.7 0.9 12-2 10.4-1.3 21-1 6.2 0.9 11-2 9.9-1.2 20-1 3.5 0 7 0 3.4 0.6 5-2 1.5 0 3 0 5.7 0.9 10-2 9.5-1.1 19-1 5.7 0.9 10-2 8.4-1.3 17-1 5.3 0.8 9-2 8.5-1.1 17-1 5.3 0.8 9-2 8.5-1.1 17-1 5.3 0.8 9-2 8.5-1.1 17-1 5.7 0.9 10-2 8.4-1.3 17-1 6.7 0.9 12-2 3 0 6 0 3.4-0.6 5 2-3.9 0.9-8 1-2.5-0.3-3 2-2.8 1.3-6 1-2.5-0.3-3 2-3.5 0.7-7 1-2.5-0.3-3 2-3.4 1.1-7 1-3-0.5-4 2-2.9 1-6 1-2.5-0.3-3 2-3.9 0.9-8 1-2.5-0.3-3 2-1.5 0-3 0-2.5-0.3-3 2-3.9 1.2-8 1-2.5-0.3-3 2-3.3 1.3-7 1-2.5-0.3-3 2-3.9 1.2-8 1-2.5-0.3-3 2-3.8 1.3-8 1-2.5-0.3-3 2-3.3 1.3-7 1-2.5-0.3-3 2-3.9 1.2-8 1-2.5-0.3-3 2-3.8 1.3-8 1-2.5-0.3-3 2-3.3 1.3-7 1-2.5-0.3-3 2-3.9 1.2-8 1-2.5-0.3-3 2-3.3 1.3-7 1-3.4-0.6-5 2-2.9 1-6 1-3.4-0.6-5 2-0.5 0-1 0-2 0-2 2-5 0.8-10 1-2.5-0.3-3 2-3.9 1.2-8 1-3.4-0.6-5 2-3.3 1.3-7 1-2.5-0.3-3 2-4.4 1-9 1-3.4-0.6-5 2-4.3 1.4-9 1-3.4-0.6-5 2-4.3 1.4-9 1-3-0.5-4 2-5.4 1.1-11 1-3.9-0.7-6 2-5.9 1.2-12 1-3.9-0.7-6 2-6.4 1.2-13 1-4.3-0.8-7 2-6.9 1.2-14 1-5.3-0.8-9 2-7.4 1.2-15 1-5.3-0.8-9 2-1.5 0-3 0-3 0-6 0-3.4-0.6-5 2-8.9 1.3-18 1-4 0-8 0-3-0.5-4 2-13 1.3-26 1-5.5 0-11 0-4.8-0.8-8 2-59 2-118 0-3.2-2.8-8-2-5.5 0-11 0-12 0.2-24-1-5.3-2.9-12-2-8.6 0.3-17-1-3.7-2.8-9-2-1.5 0-3 0-3.7-2.8-9-2-7.1 0.2-14-1-2.1-2.7-6-2-6.1 0.2-12-1-2.1-2.7-6-2-5.6 0.3-11-1-2.1-2.7-6-2-5.6 0.1-11-1-1-2.5-4-2-4.7 0.4-9-1-1.6-2.6-5-2-4.6 0.2-9-1-1.6-2.6-5-2-3.7 0.3-7-1-1.6-2.6-5-2-3.7 0.3-7-1-1.6-2.6-5-2-3.7 0.3-7-1-1-2.5-4-2-3.7 0.3-7-1-0.5-2.3-3-2-4.1 0.2-8-1-0.5-2.3-3-2-5.2-1.2-10-3-1.6-2.6-5-2-3.2 0.3-6-1-0.5-2.3-3-2-3.2 0.3-6-1-0.5-2.3-3-2-3.2 0.3-6-1-0.5-2.3-3-2-7.3-0.9-14-4-0.5-2.3-3-2-3.2 0.3-6-1 0-2-2-2-6.7-1.4-13-4 0-2-2-2-3.2 0.3-6-1 0-2-2-2-8.2-2.5-16-6 0-2-2-2-2.2 0.1-4-1-0.5-2.3-3-2-2.7 0.2-5-1 0-2-2-2-2.2 0.1-4-1 0-2-2-2-2.4 0.4-4-1-0.5-2.3-3-2-1.9 0.4-3-1-0.5-2.3-3-2-5.7-1.5-11-4 0-2-2-2-2.2 0.1-4-1 0-2-2-2-2.2 0.1-4-1 0-2-2-2-2.2 0.1-4-1 0-2-2-2-0.5-2.3-3-2-7.2-3.8-15-7 0-2-2-2-3.8-1.6-7-4-0.5-2.3-3-2-1.7-0.1-3-1 0-2-2-2-2.2 0.1-4-1 0-2-2-2-3.8-1.6-7-4 0-2-2-2-1.9 0.4-3-1-0.5-2.3-3-2-1.7-0.1-3-1 0-2-2-2-1.9-1.7-4-3-0.5-2.3-3-2-1.7-0.1-3-1 0-2-2-2-3.8-1.5-7-4 0-2-2-2-1.3-0.9-3-1 0-2-2-2-3.8-1.5-7-4 0-2-2-2-3.8-1.5-7-4 0-2-2-2-1 0-1-1-0.5-2.3-3-2-4.4-2.9-9-6 0-2-2-2-3-2-6-4 0-2-2-2-5.6-2.8-10-7 0-2-2-2-5.6-2.8-10-7 0-2-2-2-3.1-2-6-4 0-2-2-2-1.5-2-4-3 0-2-2-2-1 0-1-1 0-2-2-2-7.1-4.2-13-10 0-2-2-2-1 0-1-1 0-2-2-2-3-2-6-4 0-2-2-2-1 0-1-1 0-2-2-2-3.5-3-7-6 0-2-2-2-1 0-1-1 0-2-2-2-1 0-1-1 0-2-2-2-6-5.1-12-10 0-2-2-2-1 0-1-1 0-2-2-2-1 0-1-1 0-2-2-2-1 0-1-1 0-2-2-2-1 0-1-1 0-2-2-2-12.5-11.5-24-24 0-2-2-2-1 0-1-1 0-2-2-2-1 0-1-1 0-2-2-2-1 0-1-1 0-2-2-2-6.2-7.7-13-15 0-2-2-2-1 0-1-1 0-2-2-2-1.5 0.1-2.5-1-2.6-5.1-6.5-9 0-2-2-2-1 0-1-1 0-2-2-2-3.1-4.8-7-9 0-2-2-2-1 0-1-1 0-2-2-2-13.1-14.1-24-30 0-2-2-2-5.7-5.9-10-13 0-2-2-2-5-5.5-9-12 0-2-2-2-4-4.5-7-10 0-2-2-2-0.9-2.7-3.5-4-0.7-1.4-0.5-3 0-2-2-2-6.3-6.5-10-15 0-2-2-2-1.3-2.1-3-4 0-2-2-2-2.5-3.2-4-7 0-2-2-2-2.5-3.2-4-7 0-2-2-2-1.4-1.1-1-3 0-2-2-2-1.2-2.4-3.5-4-0.7-1.4-0.5-3 0-2-2-2-2.4-3.2-4-7 0-2-2-2-2.5-3.2-4-7 0-2-2-2 0-0.5 0-1 0-2-2-2-1.4-1.1-1-3 0-2-2-2-2.5-3.2-4-7 0-2-2-2-0.9-1.3-1-3 0.3-2.5-2-3-1.2-2.4-3.5-4-0.7-1.4-0.5-3 0-2-2-2-2.4-3.2-4-7 0-2-2-2-1.6-4.9-4-9 0-2-2-2-2.2-3.9-5.5-7-0.7-1.4-0.5-3 0-2-2-2-0.9-1.3-1-3 0.3-2.5-2-3-4.4-5.3-7-12 0-2-2-2-1.1-1.8-1-4 0-2-2-2-2.4-3.2-4-7 0-2-2-2-1.1-1.8-1-4 0-2-2-2-3.5-3.8-4-9 0-2-2-2-2.6-3.4-5.5-7-0.7-1.4-0.5-3 0-2-2-2-0.9-1.3-1-3 0.3-2.5-2-3-1.2-2.4-3.5-4-0.7-1.4-0.5-3 0-2-2-2-0.1-1.7-1-3 0-2-2-2-1.1-1.8-1-4 0-2-2-2-2.4-3.2-4-7 0-2-2-2-1.1-1.8-1-4 0-2-2-2-2.2-3.9-5.5-7-1.4-4.2-3.5-8 0-2-2-2-0.9-1.3-1-3 0.3-2.5-2-3-1.2-2.4-3.5-4-0.7-1.4-0.5-3 0-2-2-2-0.9-1.3-1-3 0.3-2.5-2-3-3.9-4-6.5-9-0.7-1.4-0.5-3 0-2-2-2-2.5-3.2-4-7 0-2-2-2 0-0.5 0-1 0-2-2-2-2.5-3.2-4-7 0-2-2-2-0.9-1.3-1-3 0.3-2.5-2-3-1.4-1.1-1-3 0-2-2-2-1.2-2.4-3.5-4-0.7-1.4-0.5-3 0-2-2-2-1.2-2.4-3.5-4-0.7-1.4-0.5-3 0-2-2-2-2.5-3.2-4-7 0-2-2-2-0.9-1.3-1-3 0-2-2-2 0-0.5 0-1 0-2-2-2-1.2-2.4-3.5-4-0.7-1.4-0.5-3 0-2-2-2-5.6-7.1-10-15 0.3-2.5-2-3-1 0-1-1 0-2-2-2-0.1-1.7-1-3 0-2-2-2-2.5-3.2-4-7 0-2-2-2-1.3-2.1-3-4 0-2-2-2-0.9-2.7-3.5-4-0.7-1.4-0.5-3 0-2-2-2-2-3-4-6 0-2-2-2-0.9-2.7-3.5-4-0.7-1.4-0.5-3 0-2-2-2-4.2-4.4-7-10 0-2-2-2-2.9-3.5-6-7 0-2-2-2-0.9-1.3-1-3 0-2-2-2-5.7-5.9-10-13 0-2-2-2-7.2-7.3-13-16 0-2-2-2-1.5-1.5-3-3 0-2-2-2-17.3-18.7-36-36 0-2-2-2-1 0-1-1 0-2-2-2-6.8-4.5-13-10 0-2-2-2-1 0-1-1 0-2-2-2-3.8-1.5-7-4 0-2-2-2-4.4-2.9-9-6 0-2-2-2-3.8-1.6-7-4 0-2-2-2-2.2 0.1-4-1 0-2-2-2-4.3-2.5-9-4 0-2-2-2-2.2 0.1-4-1 0-2-2-2-2.2 0.1-4-1 0-2-2-2-2.2 0.1-4-1-0.5-2.3-3-2-6-2-12-4-1-2.5-4-2-0.5-2.3-3-2-3.1 0-6-1-0.5-2.3-3-2-3.7 0.3-7-1-0.5-2.3-3-2-4.1 0.2-8-1-1.6-2.6-5-2-4.6 0.2-9-1-2.1-2.7-6-2-6.1 0.2-12-1-3.2-2.8-8-2-3.1 0-6-1-0.5-2.3-3-2-12.7-7.6-19-21 0-2-2-2-2.6-1.1-3-4 0-2-2-2-4-4.5-7-10 0-2-2-2-2.5-3.2-4-7 0-2-2-2-0.1-1.7-1-3 0-2-2-2-4-4.5-7-10 0-2-2-2-2.2-3.9-5.5-7-0.7-1.4-0.5-3 0-2-2-2-2-3-4-6 0-2-2-2-2.5-3.2-4-7 0-2-2-2-2.5-3.2-4-7 0-2-2-2-2.2-3.1-4-6.5 8-0.9 16 0.5 5.8 2.9 13 2 10.5-0.2 21 1 6.8 2.9 15 2 24.5 0 49 1 4.4 2 10 2 5.6 0 10-2 22-0.9 44-1 7.2 0.9 13-2 8.4-1.3 17-1 4.8 0.8 8-2 5.9-1.2 12-1 3.9 0.7 6-2 4.4-1.2 9-1 3.4 0.6 5-2 4.4-1 9-1 3 0.5 4-2 1 0 2 0 2.5 0.3 3-2 3.8-1.3 8-1 2.5 0.3 3-2 2.8-1.3 6-1 2.5 0.3 3-2 6.3-2.4 13-4 2.5 0.3 3-2 2.4-0.8 5-1 2 0 2-2 1.8-1.1 4-1 2.5 0.3 3-2 1.1-1.4 3-1 2.5 0.3 3-2 1.1-1.4 3-1 2.5 0.3 3-2 1.1-1.4 3-1 2 0 2-2 1.8-1.1 4-1 2 0 2-2 1.1-1.4 3-1 2 0 2-2 2.5 0.3 3-2 0-1 1-1 2 0 2-2 3.2-2.5 7-4 2 0 2-2 5.9-5.7 13-10 2 0 2-2 5.5-6.5 12-12 2 0 2-2 0-1 1-1 2 0 2-2 6-8.6 13-16 2 0 2-2-0.2-1.6 0.5-3 5.5-5.3 8.5-12 2 0 2-2 1.6-3.8 4-7 2 0 2-2-0.1-2.2 1-4 2 0 2-2-0.1-2.2 1-4 2 0 2-2-0.1-2.2 1-4 2 0 2-2 2-6 4-12 2 0 2-2 1.4-6.7 4-13 2.3-0.5 2-3 0-1 0-2 2.3-0.5 2-3-0.3-3.2 1-6 2.3-0.5 2-3-0.2-4.1 1-8 2.3-0.5 2-3-0.3-3.7 1-7 2.6-1.6 2-5-0.4-4.7 1-9 2.7-2.1 2-6-0.2-6.1 1-12 2.8-3.2 2-8 0.1-14.5 1-29 1.9-1.5 2-4.5-0.1-3-2-4.5-0.9-16-1-32 0.8-5.3-2-9-1.2-5.9-1-12 0.6-3.4-2-5-1-4.4-1-9 0.6-3.4-2-5-1.3-3.3-1-7 0.3-2.5-2-3-1-2.9-1-6 0.3-2.5-2-3-1-2.9-1-6 0.3-2.5-2-3-3.3-7.8-6-16 0.3-2.5-2-3-1.4-1.1-1-3 0.3-2.5-2-3-1.4-1.1-1-3 0.3-2.5-2-3-2.4-3.2-4-7 0-2-2-2-1.6-4.9-4-9 0-2-2-2-1.2-2.4-3.5-4-0.7-1.4-0.5-3 0-2-2-2-1.3-2.1-3-4 0-2-2-2-1 0-1-1 0-2-2-2-2.1-3-4-6 0-2-2-2-12-12.5-24-25 0-2-2-2-3.6-3.1-7-6 0-2-2-2-1 0-1-1 0-2-2-2-5.6-2.8-10-7 0-2-2-2-7.4-5.4-15-10 0-2-2-2-1.6 0.2-3-0.5-1.6-2.3-4-3.5 0-2-2-2-2.2 0.1-4-1 0-2-2-2-0.5 0-1 0 0-2-2-2-4.3-2.5-9-4 0-2-2-2-2.2 0.1-4-1 0-2-2-2-2.2 0.1-4-1 0-2-2-2-2.4 0.4-4-1-0.5-2.3-3-2-6-2-12-4 0-2-2-2-3.2 0.3-6-1-0.5-2.3-3-2-2.9 0.4-5-1-0.5-2.3-3-2-3.5-0.3-7-1-0.5-2.3-3-2-3.2 0.3-6-1-1-2.5-4-2-0.5 0-1 0-1.6-2.6-5-2-3.5-0.3-7-1-0.5-2.3-3-2-4.1 0.1-8-1-1-2.5-4-2-4.2 0.3-8-1-1.6-2.6-5-2-5.1 0.1-10-1-1.6-2.6-5-2-6.1 0.2-12-1-2.1-2.7-6-2-7.6 0.2-15-1-4.8-2.9-11-2-13.5 0-27-1-9.7-2-20.5-2-10.8 0-20.5 2-14 1.1-28 1-3.5 0-7 0-3-0.5-4 2-6.4 1.2-13 1-4.8-0.8-8 2-4.8 1.4-10 1-4.3-0.8-7 2-4.3 1.4-9 1-3-0.5-4 2-4.4 1.2-9 1-2.5-0.3-3 2-3.9 0.9-8 1-3.4-0.6-5 2-2.8 1.3-6 1-3-0.5-4 2-1 0-2 0-2.5-0.3-3 2-2.8 1.3-6 1-2.5-0.3-3 2-2.8 1.3-6 1-2.5-0.3-3 2-2.9 1-6 1-2.5-0.3-3 2-2.4 0.8-5 1-2.5-0.3-3 2-1.8 1.1-4 1-2.5-0.3-3 2-2.4 0.8-5 1-2.5-0.3-3 2-2.4 0.8-5 1-2.5-0.3-3 2-1.8 1.1-4 1-2 0-2 2-1.8 1.1-4 1-2.5-0.3-3 2-5.3 2.5-11 4-2 0-2 2-0.5 0-1 0-2 0-2 2-1.8 1.1-4 1-2 0-2 2-1.8 1.1-4 1-2 0-2 2-1.8 1.1-4 1-2 0-2 2-1.8 1.1-4 1-2 0-2 2-1.8 1.1-4 1-2 0-2 2-1.1 1.4-3 1-2 0-2 2-1.8 1.1-4 1-2 0-2 2-1.3 0.9-3 1-2.5-0.3-3 2-3.2 2.4-7 4-2 0-2 2-1.8 1.1-4 1-2 0-2 2-6.1 3.8-12 8.5-1.4 0.7-3 0.5-2 0-2 2-3.2 2.4-7 4-2 0-2 2-3 2.7-7 3-0.5-105.3 1-210z"/></svg>