<?xml version="1.0" encoding="UTF-8"?>
<!DOCTYPE svg PUBLIC "-//W3C//DTD SVG 1.1//EN" "http://www.w3.org/Graphics/SVG/1.1/DTD/svg11.dtd">
<svg xmlns="http://www.w3.org/2000/svg" version="1.1" width="841px" height="826px" style="shape-rendering:geometricPrecision; text-rendering:geometricPrecision; image-rendering:optimizeQuality; fill-rule:evenodd; clip-rule:evenodd" xmlns:xlink="http://www.w3.org/1999/xlink">
<g><path style="opacity:0.976" fill="#000000" d="M 175.5,9.5 C 297.868,1.87874 400.368,42.8787 483,132.5C 504.195,156.563 523.195,182.23 540,209.5C 563.582,251.013 588.916,291.346 616,330.5C 626.409,344.911 638.243,358.078 651.5,370C 669.939,384.713 690.939,393.713 714.5,397C 716.667,399.167 718.833,401.333 721,403.5C 728.583,415.581 736.749,427.248 745.5,438.5C 744.5,438.833 743.5,439.167 742.5,439.5C 710.998,434.805 679.664,435.638 648.5,442C 607.721,454.013 584.554,481.179 579,523.5C 574.947,583.533 601.78,622.366 659.5,640C 714.309,654.921 765.976,647.588 814.5,618C 820.59,614.54 826.423,610.706 832,606.5C 832.5,632.831 832.667,659.165 832.5,685.5C 788.495,683.5 744.495,681.333 700.5,679C 666.529,677.005 633.196,671.338 600.5,662C 547.77,641.754 520.77,603.254 519.5,546.5C 520.771,501.126 538.771,463.96 573.5,435C 583.327,427.92 593.327,421.086 603.5,414.5C 559.583,346.339 516.416,277.672 474,208.5C 448.68,166.834 417.18,130.334 379.5,99C 320.951,53.3183 254.284,31.485 179.5,33.5C 161.808,33.7908 144.141,34.6241 126.5,36C 88.1058,39.6179 49.7725,43.7845 11.5,48.5C 10.5,48.1667 9.5,47.8333 8.5,47.5C 48.7113,33.7078 89.7113,22.8745 131.5,15C 146.275,12.8262 160.942,10.9929 175.5,9.5 Z"/></g>
<g><path style="opacity:0.976" fill="#000000" d="M 8.5,141.5 C 52.5052,143.5 96.5052,145.667 140.5,148C 174.471,149.995 207.804,155.662 240.5,165C 284.351,180.841 310.851,211.675 320,257.5C 326.652,311.896 309.152,356.729 267.5,392C 257.673,399.08 247.673,405.914 237.5,412.5C 287.166,489.829 336.333,567.495 385,645.5C 413.631,687.132 449.131,721.632 491.5,749C 537.48,776.99 587.48,791.656 641.5,793C 673.251,793.803 704.918,792.469 736.5,789C 767.514,785.61 798.514,782.11 829.5,778.5C 830.5,778.833 831.5,779.167 832.5,779.5C 792.289,793.292 751.289,804.126 709.5,812C 554.621,836.262 429.121,787.095 333,664.5C 306.25,626.014 281.25,586.347 258,545.5C 241.267,518.433 222.601,492.766 202,468.5C 186.763,452.628 168.596,441.462 147.5,435C 140.347,433.865 133.347,432.199 126.5,430C 124.333,427.833 122.167,425.667 120,423.5C 112.417,411.419 104.251,399.752 95.5,388.5C 96.5,388.167 97.5,387.833 98.5,387.5C 128.596,391.94 158.596,391.44 188.5,386C 229.082,376.084 253.248,350.584 261,309.5C 269.152,254.963 248.318,216.129 198.5,193C 138.604,170.486 81.2712,175.819 26.5,209C 20.4099,212.46 14.5766,216.294 9,220.5C 8.50003,194.169 8.33336,167.835 8.5,141.5 Z"/></g>
</svg>
